PathFileType	4	(X/Y/Z)	11_2_84_p0_0-240_filt_butterworth.trc
DataRate	CameraRate	NumFrames	NumMarkers	Units	OrigDataRate	OrigDataStartFrame	OrigNumFrames
59.0	59.0	7	27	m	59.0	180	240
Frame#	Time	RHip			RKnee			RAnkle			RBigToe			RSmallToe			RHeel			LHip			LKnee			LAnkle			LBigToe			LSmallToe			LHeel			Neck			Head			Nose			RShoulder			RElbow			RWrist			RThumb			RIndex			RPinky			LShoulder			LElbow			LWrist			LThumb			LIndex			LPinky			
		X1	Y1	Z1	X2	Y2	Z2	X3	Y3	Z3	X4	Y4	Z4	X5	Y5	Z5	X6	Y6	Z6	X7	Y7	Z7	X8	Y8	Z8	X9	Y9	Z9	X10	Y10	Z10	X11	Y11	Z11	X12	Y12	Z12	X13	Y13	Z13	X14	Y14	Z14	X15	Y15	Z15	X16	Y16	Z16	X17	Y17	Z17	X18	Y18	Z18	X19	Y19	Z19	X20	Y20	Z20	X21	Y21	Z21	X22	Y22	Z22	X23	Y23	Z23	X24	Y24	Z24	X25	Y25	Z25	X26	Y26	Z26	X27	Y27	Z27	
180	3.0508474576271185	0.38153903108878606	0.5937713274792635	0.6172376072346907	0.37818881228187606	0.6423141044580671	1.0535350130001002	0.3550724832730984	0.6915947945504441	1.4550799840249828	0.3536693581549968	0.5075084741418718	1.442743201003272	0.40480265518763503	0.5513699919063832	1.4435143363260834	0.3338913420651993	0.7845938419861423	1.5304277396680674	0.20136239002038117	0.5460478149099	0.6126928949816257	0.17906573216909205	0.6280811637260215	1.0675673842904951	0.1862428272164747	0.6888785110916041	1.4484185086965846	0.2026396351066865	0.5002683678252211	1.436168638996876	0.14969241533194358	0.5395622581360295	1.4284295257859905	0.1896184083120101	0.7515944543258939	1.5151698464958476	0.28306003711295613	0.48977741971005345	0.108539212136572	0.3108923026962895	0.37213870564334695	-0.14277307937909753	0.3124347920349946	0.3307594691636588	0.0024881795669734015	0.42337337091684485	0.5194234037274627	0.15424130878643255	0.4524589070195697	0.42577968647658143	0.40889482501598523	0.3430629654170681	0.2599962000937263	0.27517496396047536	0.2597188134524789	0.21909382564172747	0.19515955689499725	0.26622833360116926	0.19979940833109744	0.1910340406168127	0.27020025519741614	0.1988034506419507	0.24683149308832697	0.13385512952590617	0.4742854383350943	0.16401593441284143	0.0992381242229635	0.5158273266764245	0.42201508415864986	0.12389180629008181	0.4965667299071997	0.6684871576212421	0.18150200232545322	0.48455055841403627	0.7578547673648673	0.17108847260981605	0.4628765491412232	0.7807595899500374	0.12220431079889936	0.5173782822599515	0.8002348567039365
181	3.067796610169492	0.3817144327759181	0.594510914513235	0.6180298598626324	0.3767585961511997	0.6349947007651854	1.0507524226974347	0.354473794873131	0.6912901535411352	1.454934510498554	0.3536420421735365	0.5028362424222492	1.440148350025354	0.40483818187205844	0.5530836180635292	1.4443252672771578	0.334825693132647	0.7901550952612101	1.5332397384739005	0.20089196913553584	0.5461015530569452	0.6138613944961825	0.18027682272876283	0.6238560037623341	1.0663395282224384	0.18625194255372446	0.6887861361352621	1.4482048082957084	0.20271922253810767	0.5001439911487029	1.4359487677036396	0.15030631964096072	0.5381121144274311	1.4281940978259136	0.1902191031010514	0.7506620574515892	1.5148242653984758	0.28093865765384657	0.4938609594523445	0.10353516763792571	0.30992278534123874	0.3800631936078445	-0.1456822800811838	0.3138524821958706	0.33774131287216064	-0.0018071033894139581	0.4229487714558934	0.5204918426316416	0.1542247790703566	0.4565767285215323	0.4268232830569758	0.40610140518052307	0.3439261291828412	0.24835114134608416	0.29176399189979313	0.2604172216274738	0.20784771586692713	0.22590190312024816	0.26651245416075453	0.18894876379324096	0.2261738495312607	0.27150905746160403	0.19609468366763633	0.285694766917886	0.13143542232452826	0.482449437432913	0.16297775790212826	0.09588514182675272	0.5185455054493996	0.4223663476610139	0.12334418241782781	0.49185398585083423	0.6678560869258058	0.18039580042295134	0.48108684057940887	0.7548045707560791	0.1704127823752953	0.4595086777308512	0.7796267003196744	0.12193198391834037	0.5162608608892627	0.7998662911144374
182	3.0847457627118646	0.3820263005595144	0.5945701898582766	0.6179690615372915	0.37541475270549746	0.6285495168065028	1.048049215317722	0.3545118643956528	0.6912687855693681	1.4548192574076313	0.3526891828682842	0.5005740346304689	1.4388058410961189	0.40465545118089685	0.5542927233920841	1.444067315096572	0.3355575901934559	0.7943356651814004	1.5354250656590365	0.19974988510688463	0.5455967547266314	0.6151050249467105	0.1815568476996187	0.6179352639091765	1.0650428698580163	0.18623997015134472	0.6887925875443005	1.4479894171018675	0.20286450917488597	0.4999474454020424	1.4357507665924536	0.15039439401426247	0.538032672799703	1.4280921045773325	0.191616453107392	0.7471729588592151	1.513398895560572	0.27935551163222533	0.49701564700962053	0.0987535366333396	0.30900053937302663	0.38750093642727734	-0.14906162638987977	0.31620782692125005	0.3489370731549472	-0.006477682125740854	0.422696795141537	0.5212219189486397	0.15436623745180184	0.4597583400626156	0.42819296030829807	0.39957401857542696	0.34449213721473404	0.23839512143356764	0.3097797651089844	0.26110008438835314	0.19795197736030304	0.2585592593201039	0.2642659227111509	0.1819437975948606	0.2637514224996121	0.274414368409386	0.18978492603837077	0.32265248611167135	0.12811836296392276	0.4921557663518649	0.16291779499152897	0.09356367331700641	0.5198834756813949	0.42301783578683405	0.12301023531420231	0.4888227583942052	0.6666348238662287	0.17915762282029862	0.4773631043441181	0.7518880276647316	0.1699603122281878	0.45507332011986185	0.7785304139090413	0.1217347728866901	0.5155948824238824	0.799052288031715
183	3.101694915254237	0.38257662867018416	0.5915640060097297	0.6162194072227188	0.37440637304520785	0.6237098120066051	1.0473562228395954	0.35516965034297754	0.6915753177835751	1.4547247762765343	0.35128879767253285	0.4998603437114597	1.4385262428550034	0.40405114137904885	0.5546542281826773	1.4427884385548437	0.33588257788086173	0.7959763217012082	1.5363691577957443	0.19810057916475765	0.5435528120438631	0.6162084282932117	0.1820454473848741	0.6130745153425725	1.0645057047001378	0.18616794114816962	0.689024100686901	1.447823228648508	0.20289603385218768	0.49961195745747256	1.4356204146545486	0.1503493389179197	0.538294206173288	1.4279719673800928	0.19336905891719042	0.7420924014167878	1.5104416582254958	0.2787493606140939	0.4982444077886963	0.09403272504288708	0.30798053814291065	0.3935293310429391	-0.1526783369832569	0.3180384794709929	0.3609034828751371	-0.011216080934983037	0.42186028046238255	0.5242508328673303	0.15481578485973543	0.4615238217600669	0.4312722238165918	0.3906979858348456	0.3446975106039378	0.2310524422361285	0.3277895841792845	0.26047260447480636	0.19149630049596392	0.292213580819586	0.2581430053162704	0.17446754707606468	0.30090466545300193	0.2771799360643415	0.18237977196270877	0.35596605664325065	0.12437348503565304	0.5027065894488545	0.16347578821229894	0.09286362828017104	0.5200329113846124	0.4234069126662201	0.1229157376263407	0.4874287412979351	0.6658240860657185	0.17855605858947196	0.47513669515372614	0.7510641154393705	0.1698181831866205	0.4513251614275796	0.7781879573906206	0.12148869504957069	0.51488209714784	0.7976976400184648
184	3.1186440677966103	0.3834562387848259	0.5843599993914625	0.6138537044400457	0.37361209608101753	0.6193918173111196	1.0481937084470359	0.3564901785406196	0.6923324560774291	1.4549014193409004	0.3502243440585171	0.49969142359279883	1.438668462319809	0.40326675328777817	0.5544780544446998	1.4422515453620859	0.33593792873644346	0.7960745764005374	1.5365387207731571	0.19654468055731178	0.539568779214351	0.6168837726666089	0.18179294738828264	0.6108301688238914	1.0646904796107168	0.18605478129272685	0.6894600830284416	1.4477427188427114	0.20245000364018004	0.49903483725326886	1.4355326193053257	0.1502916370464934	0.5384480065953531	1.4279264396405527	0.19469850997572852	0.7381044665663103	1.506928212428208	0.27880933224795124	0.4981296297355465	0.09005271529914548	0.30673249397784574	0.3978375594318381	-0.15505854688087853	0.3182851640995234	0.3707515592565384	-0.014730178751159013	0.4206578782310612	0.5300182430814624	0.15542494469216725	0.4622126490508547	0.43684006493959027	0.38298052132938587	0.3446512093702047	0.22520971472354462	0.3448634356384003	0.25803291192514377	0.18781237768994935	0.3259985568858324	0.24953239077575573	0.16330718561417107	0.33628840336132054	0.2786373127305068	0.17604201434221672	0.3861882137091547	0.1211341422667086	0.5111842053173138	0.16412734930457193	0.09292149237740971	0.5194935137290106	0.4234079685908018	0.12306256784847032	0.48727100991377403	0.6668266292293903	0.1789749356389345	0.47254565890526146	0.7526023168969306	0.1697174778421451	0.44844526998576384	0.7788535496805489	0.12112539971526667	0.5137549177679165	0.7967990383530182
185	3.135593220338983	0.384493472127341	0.576497324829101	0.6134488482628685	0.3729079721965102	0.6148701446053216	1.0490639319436135	0.3579943212035278	0.6933599104725257	1.4559842712079654	0.3497840978659204	0.49967459549619825	1.4388711495469253	0.4025976198633041	0.5544409514494654	1.4441314939282004	0.33591891980589694	0.7959070785197653	1.5365634860891493	0.19553837570596772	0.5350601547496925	0.6176118305816207	0.1814344263007201	0.6105060041768117	1.0650233561047862	0.18601073852380853	0.6897777430547102	1.447802074452999	0.2012694287983287	0.4982945531389584	1.4354300876437465	0.15020631609580407	0.5383419315808613	1.4279861989668903	0.195396715604428	0.7365010724455625	1.50502764388214	0.278968448227823	0.4978996976552304	0.08768271659020883	0.30454143784569276	0.4032515947061071	-0.15547587685762737	0.3172553146673014	0.37821112669736573	-0.016039661470460025	0.4197004797534698	0.5369555494339059	0.15569355206529573	0.46279571489089355	0.44394623990542875	0.3789744533759951	0.3453263063881729	0.220771558486831	0.363535379626651	0.255089641064557	0.1855781583979492	0.35933794461701396	0.24285922803648285	0.15318080369458256	0.37151724158335	0.27951807330315087	0.17202426723694694	0.4158973893987773	0.11917835352994866	0.5162402662570473	0.16484630669895756	0.09256260796815041	0.5182946131531462	0.42310483946516286	0.12339237848442525	0.48780632098048754	0.6702085771663421	0.18003765882496234	0.4668040876303455	0.7557402243288925	0.16939353444499605	0.44530162618908975	0.7799898493441889	0.1207521141021596	0.5116476638165681	0.797785302102505
186	3.152542372881356	0.38508191826808696	0.5738956787186008	0.6165660146678111	0.37244268884892945	0.6112916157545447	1.049557261716415	0.35887874292786764	0.694180406247534	1.4586287733273333	0.3497145650312419	0.4995992636506195	1.4390050867040185	0.4020078427433425	0.5553984019708665	1.4481205375757493	0.3359178354078556	0.7959228571756427	1.5366688960093795	0.19513837212429078	0.5323325276984113	0.6196995433047356	0.18128694273316745	0.6107778429168724	1.065244662082959	0.18614168865056907	0.6896262958054186	1.4480118216147968	0.19971244841845825	0.49768998949502186	1.4353142582656488	0.15010621607081873	0.5379853856973246	1.428059277369733	0.19577189165967487	0.7363154486306016	1.5054046870761606	0.2786449563857415	0.4989175754849089	0.08701416712015447	0.3001816500032112	0.41386651023396415	-0.15484957525437976	0.31590097073834894	0.3842376248816792	-0.015814217244081906	0.41893882129062904	0.5428785939748857	0.15520718065698585	0.4635380357177182	0.4504018555592685	0.3784763394583787	0.3475802296593441	0.21967433435680375	0.3866750400083792	0.25473969297411425	0.18652336075821435	0.3945515828645665	0.24309641674279148	0.15348411398004153	0.40979780639257773	0.2825333717040162	0.17009964499359392	0.44813965418406637	0.11828728615699666	0.52149936692834	0.166029536974753	0.09126926494997839	0.5163523954725051	0.4227417406817738	0.12370117444309951	0.48784934886256803	0.6747836260695196	0.18061438345589148	0.45963444281762367	0.759720211382564	0.16890998712689514	0.4416593198987463	0.7811539641033846	0.12058489342488947	0.5077907455442412	0.8005806560469717
